<?xml version="1.0" encoding="utf-8"?>
<!-- Generator: Adobe Illustrator 24.3.0, SVG Export Plug-In . SVG Version: 6.00 Build 0)  -->
<svg version="1.1" id="Layer_1" xmlns="http://www.w3.org/2000/svg" xmlns:xlink="http://www.w3.org/1999/xlink" x="0px" y="0px"
	 viewBox="0 0 486.76 286.76" style="enable-background:new 0 0 486.76 286.76;" xml:space="preserve">
<style type="text/css">
	.st0{fill:#3D3C3D;}
	.st1{fill:#F79E34;}
</style>
<g>
	<path class="st0" d="M180.21,101.87c0-20.54,0.3-41.09-0.11-61.62c-0.29-14.35,7.51-21.44,21.66-21.49
		c20.05-0.07,40.09-0.08,60.14,0.01c8.52,0.04,17.02-0.57,25.56,0.42c11.65,1.36,17.59,7.49,17.6,19.09
		c0.01,40.83,0,81.67,0.02,122.5c0,4.6-0.41,9.12-2.03,13.45c-2.92,7.8-10.07,11.71-18.41,11.05c-17.26-1.37-34.58-1.52-51.89-1.17
		c-11.61,0.23-23.21,0.84-34.82,0.77c-10.97-0.07-17.65-7.09-17.69-18.06C180.16,145.18,180.22,123.53,180.21,101.87z
		 M187.73,100.84c0,21.04,0,42.08,0,63.12c0,9.13,4.48,13.64,13.69,13.51c6.42-0.09,12.84-0.67,19.25-0.69
		c11.73-0.03,23.44-0.9,35.21-0.32c9.75,0.48,19.51,0.68,29.27,1.18c6.32,0.32,10.24-2.22,11.53-7.55c0.49-2.03,0.83-4.15,0.83-6.22
		c0.05-34.66,0.02-69.31,0.08-103.97c0-2.02-0.45-2.76-2.62-2.75c-23.14,0.13-46.29,0.15-69.43,0.19
		c-8.14,0.01-16.35,0.38-24.06-2.98c-4.09-1.78-7.07-4.46-7.16-9.37c-0.11-6.16,2.98-10.42,9.13-12.26
		c3.57-1.07,7.28-1.33,10.98-1.34c24.01-0.05,48.02-0.03,72.03-0.02c5.33,0,5.77,0.44,5.77,5.6c0,4.46,0.05,8.91-0.02,13.37
		c-0.03,1.92-0.03,3.22,2.64,3.2c2.51-0.02,2.84-1.04,2.74-3.11c-0.13-2.84-0.03-5.69-0.03-8.54c0-12.75-3.14-15.86-16.04-15.84
		c-24.13,0.04-48.27,0.1-72.4,0.13c-3.71,0-7.4,0.09-11.1,0.51c-7.15,0.8-10.27,4.15-10.28,11.39
		C187.73,59,187.73,79.92,187.73,100.84z M247.84,36.59c0-0.05,0-0.09,0-0.14c-11.63,0-23.26,0-34.89,0c-3.23,0-6.43,0.31-9.42,1.59
		c-2.58,1.1-4.13,3.03-4.14,6c-0.02,2.95,1.39,4.89,4.01,6.07c2.63,1.18,5.44,1.8,8.26,1.81c24.38,0.09,48.75,0.05,73.13,0.14
		c2.07,0.01,2.47-0.76,2.4-2.59c-0.12-3.21-0.21-6.45,0.02-9.65c0.19-2.69-0.83-3.3-3.36-3.27
		C271.84,36.66,259.84,36.59,247.84,36.59z"/>
	<path class="st0" d="M419.62,213.69c0.87,0,1.75,0.1,2.59-0.02c2.59-0.38,3.55,0.6,4.08,3.28c1.67,8.44,3.77,16.79,5.72,25.18
		c0.12,0.51-0.22,1.4,0.66,1.42c0.83,0.02,0.69-0.84,0.85-1.39c2.21-7.68,4.46-15.34,6.59-23.03c0.82-2.95,2.03-5.28,5.54-5.44
		c3.64-0.16,4.87,2.27,5.73,5.15c2.2,7.42,4.4,14.84,6.55,22.27c0.31,1.05,0.25,2.22,1.29,2.94c0.28-0.93,0.62-1.85,0.83-2.8
		c1.81-8.16,3.66-16.32,5.36-24.5c0.47-2.27,1.32-3.44,3.87-3.1c2.77,0.37,6.73-1.17,8.05,0.66c1.06,1.47-0.89,5.19-1.63,7.88
		c-3.4,12.31-6.9,24.6-10.24,36.93c-0.62,2.31-1.4,3.79-4.13,3.29c-1.08-0.2-2.24-0.15-3.33-0.01c-2.22,0.28-3.18-0.54-3.83-2.78
		c-2.23-7.66-4.77-15.23-7.17-22.84c-0.29-0.93-0.29-1.97-1.17-2.64c-0.39,0.84-0.86,1.64-1.14,2.51
		c-2.42,7.6-4.92,15.19-7.15,22.85c-0.63,2.15-1.42,3.22-3.74,2.9c-1.21-0.17-2.49-0.17-3.7,0c-2.36,0.34-3.12-0.8-3.7-2.93
		c-3.77-13.87-7.68-27.71-11.55-41.56c-1.18-4.23-1.18-4.23,3.29-4.24C418.63,213.69,419.13,213.69,419.62,213.69z"/>
	<path class="st0" d="M327.3,238.48c0,7.17,0.01,14.34,0,21.51c-0.02,10.92-5.91,16.85-16.89,17.1c-4.36,0.1-8.58-0.31-12.62-2.17
		c-3.8-1.75-5.93-4.68-6.79-8.66c-0.36-1.67-0.21-2.9,2.08-2.7c1.59,0.14,3.22,0.02,4.81-0.16c1.86-0.2,3-0.21,4.25,1.95
		c1.88,3.25,5.7,2.16,8.84,2c2.54-0.13,3.82-1.81,4.53-4.17c0.87-2.92,0.43-5.89,0.68-8.83c0.14-1.66-0.53-1.57-1.63-0.97
		c-1.95,1.06-4.11,1.84-5.82,3.2c-6.2,4.93-16.66,0.96-19.17-7.65c-2.5-8.58-2.36-17.35,0.04-25.94c1.59-5.69,6.3-8.85,12.97-9.06
		c7.52-0.24,15.08,0.38,22.57-0.71c2.47-0.36,2.18,1.14,2.17,2.64C327.3,223.4,327.3,230.94,327.3,238.48z M316.1,233.81
		c0-10.51,0-10.48-9.77-9.66c-2.75,0.23-4.77,1.52-5.67,4.05c-1.64,4.62-2.27,9.38-0.69,14.15c1.32,3.99,5.35,5.36,9.3,3.79
		c5.04-2.01,8.35-4.83,6.85-10.86C316,234.83,316.1,234.31,316.1,233.81z"/>
	<path class="st0" d="M11.62,225.98c0-8.41,0.06-16.81-0.05-25.22c-0.03-2.06,0.52-2.69,2.65-2.73c8.59-0.16,8.59-0.24,8.59,8.23
		c0,3.46,0.08,6.92-0.03,10.38c-0.07,2.13,0.22,3.07,2.56,1.77c2.25-1.25,4.68-2.17,7.02-3.26c7.8-3.63,15.7-0.35,17.62,8.01
		c2.08,9.08,2.26,18.4-0.19,27.48c-2.2,8.14-7.16,11.86-15.59,12.07c-4.18,0.1-8.39-0.12-12.56-0.49c-5.7-0.52-9.94-5.39-10-11.39
		C11.56,242.54,11.62,234.26,11.62,225.98z M40.33,237.51c-0.65-2.94,0.07-5.98-1.04-8.83c-1.21-3.09-4.35-5.12-6.89-3.96
		c-2.91,1.32-5.6,3.09-8.47,4.51c-1.2,0.59-1.1,1.47-1.1,2.44c0,5.81,0.02,11.63-0.01,17.44c-0.01,1.8,0.56,3.13,2.34,3.76
		c6.72,2.39,13.18-1.29,14.55-8.41C40.14,242.16,40.13,239.79,40.33,237.51z"/>
	<path class="st0" d="M154.21,229.99c0-9.64,0.09-19.29-0.06-28.93c-0.04-2.51,0.76-3.04,3.11-3.04c8.15,0.02,8.15-0.07,8.15,7.93
		c0,9.39-0.01,18.79,0.01,28.18c0,1.06,0.18,2.12,0.28,3.18c1.26-0.25,1.47-1.46,2.05-2.3c3.67-5.41,7.42-10.76,10.89-16.29
		c1.48-2.35,3.06-3.57,5.94-3.22c2.65,0.32,5.36,0.23,8.04,0.33c-0.41,2.98-2.86,4.71-4.39,6.98c-2.83,4.19-5.74,8.34-8.94,12.25
		c-1.65,2.02-1.22,3.3,0.15,5.07c5.08,6.52,10.06,13.12,15.04,19.72c0.5,0.66,1.3,1.68,1.1,2.15c-0.36,0.82-1.56,0.26-2.38,0.42
		c-7.56,1.44-12.98-1.17-16.47-8.16c-1.25-2.5-3.43-4.51-5-6.87c-1.25-1.88-1.85-1.29-3.13,0.07c-3.17,3.39-3.65,7.39-3.18,11.66
		c0.27,2.45-0.38,3.4-3.11,3.37c-8.11-0.1-8.12,0.03-8.12-8C154.21,246.31,154.21,238.15,154.21,229.99z"/>
	<path class="st0" d="M264.09,262.36c-4.33,0-8.66,0.02-12.99-0.01c-3.18-0.02-6.3-0.38-7.88-3.66c-1.67-3.47-0.3-6.54,1.96-9.16
		c5.32-6.18,10.8-12.22,16.17-18.36c2.85-3.26,5.46-6.73,7.19-10.72c1.76-4.06,0.24-7.59-3.64-8.96c-4.47-1.58-8.92,0.22-9.51,4.58
		c-0.55,4.01-2.66,4.07-5.72,4.01c-6.96-0.15-6.85-0.03-5.68-6.77c1.23-7.09,5.71-10.73,12.41-11.79c4.63-0.73,9.35-0.86,13.98,0.38
		c9.13,2.43,12.88,9.05,10.54,18.32c-1.4,5.55-4.52,10.1-8.09,14.38c-4.35,5.22-8.86,10.31-13.27,15.48
		c-0.5,0.59-1.69,1.06-1.05,2.03c0.26,0.39,1.32,0.34,2.02,0.35c5.69,0.02,11.39,0.15,17.07-0.05c2.65-0.09,3.68,0.43,3.58,3.39
		c-0.21,6.56-0.02,6.57-6.7,6.57C271.01,262.36,267.55,262.36,264.09,262.36z"/>
	<path class="st0" d="M98.6,238.49c0.09,3.69,0.16,7.37-0.68,11.03c-1.99,8.69-6.87,13.28-15.71,14.08
		c-3.92,0.35-7.89,0.39-11.76-0.77c-4.89-1.46-8.72-4.31-10.37-9.2c-3.42-10.09-3.62-20.31-0.07-30.43c1.5-4.29,4.58-7.22,8.93-8.76
		c6.15-2.17,12.39-2.16,18.48-0.13c7.93,2.65,10.26,9.34,11.13,16.77C98.84,233.52,98.6,236.02,98.6,238.49z M87.37,238.24
		c0-2.59,0.25-5.21-0.05-7.76c-0.54-4.58-3.1-6.9-7.74-7.53c-4.04-0.55-8.03,1.29-9.29,5.08c-2.31,6.95-2.32,14.05,0.38,20.94
		c1.38,3.52,4.55,4.88,8.06,4.73c3.65-0.15,6.55-1.86,7.93-5.59C87.86,244.88,87.49,241.55,87.37,238.24z"/>
	<path class="st0" d="M104.5,238.14c-0.2-5.19-0.02-10.31,2.11-15.22c1.9-4.37,4.96-7.35,9.43-8.72c5.91-1.82,11.89-1.8,17.82,0.07
		c6.06,1.92,9.19,6.56,10.45,12.35c1.75,8.02,1.9,16.17-0.29,24.17c-2.19,8-6.96,12.03-15.18,12.77c-3.05,0.27-6.23,0.34-9.23-0.21
		c-9.53-1.74-14.39-7.74-15.09-18.18C104.37,242.84,104.5,240.49,104.5,238.14z M134.24,237.96c-0.24-2.81,0.26-5.64-0.59-8.44
		c-1.34-4.4-3.94-6.53-8.55-6.64c-4.14-0.1-7.56,2.05-8.65,6.11c-1.62,6.03-1.56,12.21,0.04,18.24c1.11,4.17,4.45,6.56,8.34,6.57
		c4.36,0.01,7.27-2.49,8.73-7.04C134.5,243.83,134,240.89,134.24,237.96z"/>
	<path class="st0" d="M369.63,238.01c-0.16-5.07,0.06-10.09,2.09-14.88c1.84-4.35,4.82-7.34,9.31-8.83
		c5.93-1.97,11.92-1.92,17.82-0.13c6.48,1.96,9.62,7.01,10.85,13.28c1.44,7.33,1.36,14.75-0.02,22.09
		c-1.58,8.4-7.11,13.3-15.75,14.05c-2.94,0.26-5.98,0.31-8.87-0.16c-9.61-1.56-14.76-7.95-15.4-18.76
		C369.52,242.46,369.63,240.23,369.63,238.01z M399.34,237.86c-0.25-2.57,0.35-5.52-0.55-8.46c-1.31-4.27-3.69-6.27-8.24-6.53
		c-3.95-0.22-7.68,1.74-8.73,5.49c-1.88,6.73-2.05,13.6,0.44,20.29c1.39,3.75,4.58,5.19,8.22,5.03c3.78-0.17,6.76-1.98,8.06-5.93
		C399.57,244.61,399.27,241.41,399.34,237.86z"/>
	<path class="st0" d="M217.53,263.12c-4.21-0.02-7.61-0.29-10.89-1.62c-4.9-1.99-7.96-6.63-7.87-11.84c0.03-1.54,0.34-2.32,2.04-2.2
		c1.48,0.1,2.97,0.12,4.45,0c2.34-0.2,3.73,0.12,4.22,3.05c0.56,3.36,5.58,4.79,10.79,3.61c4.24-0.96,5.69-3.73,4.11-7.67
		c-0.96-2.4-2.94-3.14-5.2-3.53c-2.91-0.5-5.82-0.95-8.72-1.49c-6.18-1.15-9.19-4.17-10.41-10.36c-1.27-6.45,0.55-11.99,5.51-14.93
		c7.56-4.48,15.51-4.45,23.3-0.66c4.92,2.4,5.86,7.27,6.36,12.18c0.04,0.36,0.04,0.96-0.15,1.06c-2.41,1.29-5.02,0.34-7.53,0.63
		c-1.29,0.15-1.92-0.32-2.4-1.62c-1.81-4.88-6.24-6.76-11.12-4.88c-2.34,0.9-3.52,2.47-3.31,5.11c0.21,2.66,1.68,3.98,4.12,4.46
		c3.74,0.73,7.53,1.26,11.22,2.18c6.38,1.59,9.26,5.54,9.86,13.01c0.5,6.24-2.39,11.35-7.87,13.77
		C224.44,262.93,220.64,263.27,217.53,263.12z"/>
	<path class="st0" d="M343.65,262.32c-5.77,0-5.77,0-5.77-5.86c0-13.22,0.06-26.45-0.06-39.67c-0.02-2.46,0.68-3.26,3.1-3.07
		c2.84,0.22,6-0.76,7.35,3.11c0.47,1.33,1.56,0.57,2.48,0.18c3.16-1.33,6.28-2.78,9.54-3.8c4.21-1.32,5.38-0.09,4.27,4.02
		c-0.1,0.35-0.07,0.74-0.17,1.09c-0.99,3.39-1.27,7.27-6.72,6.21c-1.65-0.32-3.63,1.23-5.49,1.84c-2.42,0.79-3.34,2.22-3.27,4.91
		c0.2,8.52,0.07,17.05,0.07,25.58C348.99,262.32,348.99,262.32,343.65,262.32z"/>
	<path class="st1" d="M197.34,78.36c0-3.33,0.07-6.67-0.02-10c-0.08-2.61,0.85-3.83,3.65-3.78c6.79,0.13,13.59,0.09,20.38,0.01
		c2.55-0.03,3.53,1.05,3.5,3.56c-0.08,6.67-0.09,13.34,0,20.01c0.04,2.64-0.94,3.85-3.68,3.82c-6.79-0.08-13.59-0.06-20.38-0.01
		c-2.53,0.02-3.55-1.11-3.48-3.61C197.42,85.04,197.34,81.7,197.34,78.36z"/>
	<path class="st1" d="M274.52,64.63c3.21,0,6.43,0.11,9.63-0.03c2.62-0.11,3.87,0.74,3.82,3.56c-0.11,6.79-0.08,13.58-0.02,20.38
		c0.02,2.32-0.92,3.44-3.27,3.44c-7.04-0.02-14.08-0.01-21.12-0.01c-2.14,0-3.13-1.08-3.12-3.22c0.03-6.92,0.03-13.83,0-20.75
		c-0.01-2.57,1.25-3.46,3.7-3.39C267.61,64.71,271.07,64.63,274.52,64.63z"/>
	<path class="st0" d="M210.84,155.23c-3.46,0-6.91-0.01-10.37,0c-2.13,0.01-3.15-0.99-3.14-3.15c0.03-7.03,0.04-14.07-0.01-21.1
		c-0.02-2.39,1.1-3.27,3.4-3.25c6.91,0.06,13.82,0.06,20.73,0c2.34-0.02,3.38,0.99,3.37,3.31c-0.03,6.91-0.05,13.82,0.01,20.73
		c0.02,2.55-1.19,3.52-3.63,3.47C217.75,155.18,214.29,155.23,210.84,155.23z"/>
	<path class="st1" d="M287.94,141.68c0,3.34-0.05,6.67,0.02,10.01c0.05,2.52-1.1,3.57-3.57,3.55c-6.79-0.05-13.59-0.04-20.38-0.01
		c-2.48,0.01-3.57-1.12-3.56-3.61c0.05-6.79,0.05-13.59,0-20.38c-0.02-2.52,1.13-3.54,3.61-3.52c6.79,0.06,13.59,0.06,20.38,0
		c2.54-0.02,3.57,1.09,3.52,3.58C287.88,134.76,287.94,138.22,287.94,141.68z"/>
	<path class="st0" d="M256.17,78.21c0,3.47-0.09,6.93,0.03,10.39c0.08,2.35-0.76,3.37-3.2,3.34c-6.93-0.08-13.86-0.06-20.79-0.01
		c-2.15,0.02-3.15-0.75-3.12-3.03c0.08-7.05,0.08-14.11,0-21.16c-0.03-2.47,1.06-3.19,3.39-3.16c6.81,0.1,13.61,0.1,20.42,0
		c2.39-0.04,3.38,0.82,3.3,3.23C256.09,71.28,256.17,74.75,256.17,78.21z"/>
	<path class="st1" d="M210.73,123.46c-3.34,0-6.68-0.05-10.02,0.02c-2.28,0.04-3.42-0.8-3.39-3.25c0.08-6.93,0.07-13.86,0-20.79
		c-0.02-2.26,0.98-3.07,3.14-3.06c7.05,0.05,14.11,0.07,21.16-0.01c2.46-0.03,3.24,1.09,3.22,3.39c-0.07,6.81-0.07,13.61,0,20.42
		c0.02,2.39-1.01,3.35-3.35,3.3C217.9,123.4,214.31,123.45,210.73,123.46z"/>
	<path class="st0" d="M274.26,96.35c3.46,0,6.92,0.07,10.38-0.02c2.32-0.06,3.37,0.77,3.34,3.22c-0.1,6.92-0.09,13.84,0,20.76
		c0.03,2.22-0.86,3.19-3.03,3.19c-7.17-0.02-14.33-0.02-21.5,0c-2.26,0.01-3.01-1.18-3-3.26c0.03-6.92,0.06-13.84-0.02-20.76
		c-0.03-2.5,1.19-3.2,3.45-3.15C267.34,96.41,270.8,96.35,274.26,96.35z"/>
	<path class="st0" d="M256.21,141.41c0,3.58-0.03,7.17,0.01,10.75c0.03,2.18-0.93,3.11-3.14,3.09c-6.92-0.06-13.84-0.06-20.77,0
		c-2.39,0.02-3.3-1.02-3.27-3.36c0.07-6.92,0.08-13.84,0-20.77c-0.03-2.56,1.01-3.47,3.56-3.42c6.67,0.12,13.35,0.14,20.02-0.01
		c2.79-0.06,3.75,1,3.63,3.7C256.1,134.73,256.21,138.07,256.21,141.41z"/>
	<path class="st1" d="M256.12,109.81c0,3.46-0.09,6.92,0.03,10.37c0.08,2.41-0.92,3.29-3.28,3.26c-6.79-0.08-13.58-0.08-20.37,0
		c-2.3,0.03-3.4-0.71-3.37-3.18c0.09-6.91,0.08-13.83,0-20.74c-0.02-2.13,0.57-3.14,2.92-3.11c7.04,0.1,14.08,0.1,21.11,0
		c2.26-0.03,3.07,0.8,2.99,3.03C256.03,102.89,256.12,106.35,256.12,109.81z"/>
	<path class="st0" d="M249.9,166.77c-0.08,4.03-3.41,7.16-7.49,7.05c-3.98-0.1-7.19-3.55-7.02-7.53c0.17-3.94,3.27-6.81,7.31-6.79
		C246.9,159.52,249.98,162.64,249.9,166.77z"/>
</g>
</svg>
