<svg id="Layer_1" enable-background="new 0 0 510 510" height="512" viewBox="0 0 510 510" width="512" xmlns="http://www.w3.org/2000/svg"><g id="XMLID_4651_"><path id="XMLID_4653_" d="m135 237.047c-74.439 0-135 60.561-135 135 0 43.662 20.841 82.542 53.091 107.234v-3.234c0-29.875 16.084-56.055 40.041-70.363-9.277-10.117-14.95-23.589-14.95-38.364 0-31.329 25.488-56.817 56.818-56.817s56.818 25.488 56.818 56.817c0 14.775-5.673 28.247-14.95 38.364 23.957 14.309 40.041 40.488 40.041 70.363v3.234c32.25-24.692 53.091-63.572 53.091-107.234 0-74.439-60.561-135-135-135z"/><path id="XMLID_4672_" d="m135 424.138c-28.623 0-51.909 23.286-51.909 51.909v20.615c33.11 13.844 70.665 13.861 103.818 0v-20.615c0-28.623-23.286-51.909-51.909-51.909z"/><path id="XMLID_4675_" d="m161.818 367.319c0-14.787-12.031-26.817-26.818-26.817s-26.818 12.03-26.818 26.817c0 14.788 12.03 26.818 26.818 26.818s26.818-12.029 26.818-26.818z"/><path id="XMLID_167_" d="m270 277.289c16.134 22.918 26.641 50.256 29.311 79.758h30.689c0-9.336 0-230.587 0-240v-.246h-60z"/><path id="XMLID_166_" d="m240 244.861v-82.814h-60v51.238c22.262 6.319 42.622 17.204 60 31.576z"/><path id="XMLID_109_" d="m360 356.801c4.48-.019 55.517.019 60 0v-285h-60z"/><path id="XMLID_108_" d="m449 27.047v330h61v-330h-61z"/><path id="XMLID_43_" d="m92.574 98.408 42.426 42.426 116.672-116.673-21.213-21.213-95.459 95.459-42.426-42.425-68.664 68.663 21.213 21.213z"/></g></svg>