<?xml version="1.0" encoding="iso-8859-1"?>
<!-- Generator: Adobe Illustrator 19.0.0, SVG Export Plug-In . SVG Version: 6.00 Build 0)  -->
<svg version="1.1" id="Capa_1" xmlns="http://www.w3.org/2000/svg" xmlns:xlink="http://www.w3.org/1999/xlink" x="0px" y="0px"
	 viewBox="0 0 512 512" style="enable-background:new 0 0 512 512;" xml:space="preserve">
<g>
	<g>
		<path d="M56,0v512h400V0H56z M409.666,467.188H102.333V44.813h307.333V467.188z"/>
	</g>
</g>
<g>
	<g>
		<path d="M132.333,74.813v274.772c22.202-9.094,59.737-20.866,108.667-22.931V239h-59.668v-30H241v-81h30v81h59.667v30H271v87.654
			c48.93,2.065,86.465,13.837,108.667,22.931V74.813H132.333z"/>
	</g>
</g>
<g>
	<g>
		<path d="M271,356.686V384h-30v-27.314c-54.413,2.553-93.271,18.373-108.667,25.751v54.75h247.334v-54.752
			C364.297,375.069,325.432,359.24,271,356.686z"/>
	</g>
</g>
<g>
</g>
<g>
</g>
<g>
</g>
<g>
</g>
<g>
</g>
<g>
</g>
<g>
</g>
<g>
</g>
<g>
</g>
<g>
</g>
<g>
</g>
<g>
</g>
<g>
</g>
<g>
</g>
<g>
</g>
</svg>
