<?xml version="1.0"?>
<svg xmlns="http://www.w3.org/2000/svg" id="Layer_1" data-name="Layer 1" viewBox="0 0 512 512" width="512" height="512"><title>Class</title><path d="M85,390.193V423h98v-2.691a63.081,63.081,0,0,1,20.662-46.647C196.232,353.231,177,339,155.642,339H136.024C107.985,339,85,362.155,85,390.193Z"/><path d="M317,420.5c0-28.077-23.189-50.5-51.256-50.5h-19.8A50.505,50.505,0,0,0,195,420.319V477H317Z"/><path d="M427,423V390.372C427,362.3,404.135,339,376.069,339H356.35c-21.7,0-40.979,14.168-48.329,34.567A63.464,63.464,0,0,1,329,420.507V423Z"/><path d="M176.127,123.174l14.382,5.6a5.855,5.855,0,0,1,.75.292l59.111,23.005,59.114-23.006a5.8,5.8,0,0,1,.745-.29l14.383-5.6L250.37,95.885Z"/><path d="M341.684,164.611a5.145,5.145,0,1,0,5.144,5.144A5.151,5.151,0,0,0,341.684,164.611Z"/><path d="M195,183.078v16.894a169.8,169.8,0,0,0,111,0V183.078a181.654,181.654,0,0,1-111,0Z"/><path d="M428,269V62H84V269h17.257c1.158-23,20.708-42,44.582-42h.021c23.926,0,43.5,19,44.635,42h34.042c8.392-8,19.456-12,31.223-12h.02c12.155,0,23.179,4,31.241,12h34.071a44.255,44.255,0,0,1,44.584-42h.02c23.926,0,43.5,19,44.636,42Zm-86.208-82.1a17.073,17.073,0,0,1-17.038-17.145,16.585,16.585,0,0,1,11.246-16V131.787l-18,6.841v65.565a5.973,5.973,0,0,1-3.879,5.622,182.233,182.233,0,0,1-127.342,0A5.887,5.887,0,0,1,183,204.193V138.628L157.121,128.6a6.055,6.055,0,0,1-3.884-5.648,5.949,5.949,0,0,1,3.871-5.575l91.2-33.522a6.056,6.056,0,0,1,4.155,0l91.223,33.522a6.053,6.053,0,0,1,3.985,5.575c0,.115.09.227.084.341.011.151.24.3.24.455v29.92a17.838,17.838,0,0,1,11.1,16.082A17.3,17.3,0,0,1,341.792,186.9Z"/><path d="M250.433,164.507a5.662,5.662,0,0,1-2.114-.409L195,143.3v27.135a169.782,169.782,0,0,0,111,0V143.3l-53.418,20.8A5.842,5.842,0,0,1,250.433,164.507Z"/><path d="M183.137,296h28.3a50.474,50.474,0,0,1,4.355-15H189.358A38.782,38.782,0,0,1,183.137,296Z"/><path d="M145.859,304.174a.073.073,0,0,1,.021,0c17.958,0,32.3-14.285,32.671-32.644A32.627,32.627,0,0,0,145.894,239h-.015a32.587,32.587,0,1,0-.02,65.174Z"/><path d="M102.3,281H78.4c-3.313,0-6.4-2.383-6.4-5.7V55.807C72,52.494,75.087,50,78.4,50H433.6c3.313,0,6.4,2.494,6.4,5.807V275.3c0,3.314-3.087,5.7-6.4,5.7H409.347a37.607,37.607,0,0,1-6.171,15H454V35H58V296h50.538A37.76,37.76,0,0,1,102.3,281Z"/><path d="M300.158,296h28.181a36.7,36.7,0,0,1-6.217-15H295.775A51.639,51.639,0,0,1,300.158,296Z"/><path d="M255.813,269H255.8a32.317,32.317,0,0,0-32.678,32.269A32.748,32.748,0,0,0,255.779,334h.053a32.482,32.482,0,0,0,23.085-9.629,31.982,31.982,0,0,0,9.554-22.895A32.532,32.532,0,0,0,255.813,269Z"/><path d="M365.729,239h-.008a32.5,32.5,0,1,0-.026,65h.526a32.174,32.174,0,0,0,32.167-32.372A32.636,32.636,0,0,0,365.729,239Z"/></svg>
