<svg height="447pt" viewBox="0 -3 447.04 447" width="447pt" xmlns="http://www.w3.org/2000/svg"><path d="m199.039062 344.019531h224v16h-224zm0 0"/><path d="m183.3125 369.371094c-.132812-.441406-.222656-.894532-.273438-1.351563v-32c.050782-.457031.140626-.910156.273438-1.351562-10.230469-7.988281-16.226562-20.230469-16.273438-33.207031v-10.882813c.035157-23.316406 18.8125-42.269531 42.128907-42.519531l13.113281-144.039063h-222.28125l38.183594 336h138.457031c-6.160156-7.484375-9.550781-16.867187-9.601563-26.558593v-10.882813c.046876-12.976563 6.042969-25.21875 16.273438-33.207031zm0 0"/><path d="m95.039062 88.019531h16v-64c0-4.417969 3.582032-8 8-8h32v-15.9999998h-56zm0 0"/><path d="m209.601562 376.019531h210.878907c14.667969 0 26.558593 11.890625 26.558593 26.558594v10.882813c0 14.667968-11.890624 26.558593-26.558593 26.558593h-210.878907c-14.671874 0-26.5625-11.890625-26.5625-26.558593v-10.882813c0-14.667969 11.890626-26.558594 26.5625-26.558594zm0 0"/><path d="m209.601562 264.019531h210.878907c14.667969 0 26.558593 11.890625 26.558593 26.558594v10.882813c0 14.667968-11.890624 26.558593-26.558593 26.558593h-210.878907c-14.671874 0-26.5625-11.890625-26.5625-26.558593v-10.882813c0-14.667969 11.890626-26.558594 26.5625-26.558594zm0 0"/></svg>