<svg id="Layer_1" data-name="Layer 1" xmlns="http://www.w3.org/2000/svg" viewBox="0 0 235.13 245.2"><defs><style>.cls-1{fill:#fff;}.cls-2{fill:#01793b;}</style></defs><path d="M222.57,143.89c18.1,19.35,6.14,51.05-20,53.83,6.65,21.42-13.06,42.94-36.32,33.71-7.56,21.53-35.72,22.23-46.25,5.35a26,26,0,0,0,3.55-9.46h.32v-3c.54,14,19.21,22.93,30.79,11.36a18.07,18.07,0,0,0,.54-25c-3.91-4.25,4.38-13.47,10.74,2.87l1.75,10.09c20.17,9.62,35.65-13.06,25.05-28.71-2.68-3.95,2.88-8.25,6-4.75,7.27-.65,12.05-1.64,17.56-7.15,16.35-16.35,1.94-41.56-17.22-41.56-5.1,0-5.1-7.74,0-7.74a32,32,0,0,1,17.33,5.07C233.76,127,234.61,102,217.18,90c-2.34.79-7.06-.86-4-7.13,2.85-5.83.05-19.9-12.42-23.25a31.91,31.91,0,0,1-4.32,11.17,28.36,28.36,0,0,0-4.06-5.09c-.54-.54-1.09-1-1.65-1.51,3.92-9.16,2.56-20.67-4.33-27.56a24.37,24.37,0,0,0-26.91-5.14,4.38,4.38,0,0,1-3.24,1.64c-6.64,0-.94-8.42-9.17-16.65a18.06,18.06,0,0,0-23.22-2V10.91A25.42,25.42,0,0,0,120,7.73a25.87,25.87,0,0,1,39.44,15.51,32.09,32.09,0,0,1,41.78,28.48,25.81,25.81,0,0,1,19.87,31.55C242.6,97.7,243,128.2,222.57,143.89Z" transform="translate(-2.43 -3.4)"/><path d="M200,80.12c2.31,13-4.86,26.16-13.85,35-9.88,9.72-25.07,17-38.57,12.45a16,16,0,0,1-4.65,10l-.06.07,29.75,29.75a16.13,16.13,0,0,1-22.81,22.8l-26-26v-10l31,31a9.06,9.06,0,0,0,12.81-12.81l-34.75-34.74h0l5.06-5.06a9.07,9.07,0,0,0,2.22-9.18l4.9-4.9C165.92,132.7,201.75,99,191.65,76.72a31.5,31.5,0,0,0,4.8-6A26.27,26.27,0,0,1,200,80.12Z" transform="translate(-2.43 -3.4)"/><path d="M192.39,65.66a28.36,28.36,0,0,1,4.06,5.09,31.5,31.5,0,0,1-4.8,6,20.57,20.57,0,0,0-4.25-6.06l-.4-.39a23.61,23.61,0,0,0,3.74-6.12C191.3,64.61,191.85,65.12,192.39,65.66Z" transform="translate(-2.43 -3.4)"/><path class="cls-1" d="M191.65,76.72c10.1,22.27-25.73,56-46.56,41.76l-4.9,4.9a9.07,9.07,0,0,1-2.22,9.18l-5.06,5.06-9-9v-7.52l1.3-1.3a9.06,9.06,0,0,1,9.18-2.21l4.91-4.91C123.81,90,166,50.31,187,70.27c-4,4.71-9.93,7.88-17.81,7.88-5.1,0-5.1,7.75,0,7.75a32.39,32.39,0,0,0,7.07-.78,10.59,10.59,0,0,0-.61,1c-2.35,4.18-1.65,9,1.58,10.85s7.74-.11,10.09-4.29,1.65-9-1.58-10.86a4.66,4.66,0,0,0-.45-.22A31.67,31.67,0,0,0,191.65,76.72Z" transform="translate(-2.43 -3.4)"/><path class="cls-1" d="M191.65,76.72a31.67,31.67,0,0,1-6.36,4.85c-2.91-1.29-6.69.22-9,3.55a32.39,32.39,0,0,1-7.07.78c-5.1,0-5.1-7.75,0-7.75,7.88,0,13.84-3.17,17.81-7.88l.4.39A20.57,20.57,0,0,1,191.65,76.72Z" transform="translate(-2.43 -3.4)"/><path d="M185.74,81.79c3.23,1.82,3.93,6.68,1.58,10.86s-6.87,6.1-10.09,4.29-3.93-6.67-1.58-10.85a10.59,10.59,0,0,1,.61-1,32,32,0,0,0,9-3.55A4.66,4.66,0,0,1,185.74,81.79Z" transform="translate(-2.43 -3.4)"/><path d="M190.74,64.15A23.61,23.61,0,0,1,187,70.27c-21-20-63.19,19.74-47.74,42.37l-4.91,4.91a9.06,9.06,0,0,0-9.18,2.21l-1.3,1.3V112a16.07,16.07,0,0,1,6.33-1.89,26.36,26.36,0,0,1-.86-3.31c-2.5-13.15,5-26.58,14.19-35.44C156.06,59.26,176.24,51.66,190.74,64.15Z" transform="translate(-2.43 -3.4)"/><path class="cls-2" d="M176.26,85.12c2.34-3.33,6.12-4.84,9-3.55A32,32,0,0,1,176.26,85.12Z" transform="translate(-2.43 -3.4)"/><path class="cls-1" d="M167.66,172.37a9.06,9.06,0,0,1-12.81,12.81l-31-31v-7.52l9-9.05Z" transform="translate(-2.43 -3.4)"/><polygon class="cls-1" points="130.48 134.22 130.48 134.23 121.44 143.28 121.44 125.18 130.48 134.22"/><path d="M123.87,164.19v63.13h-.32a26,26,0,0,1-3.55,9.46,26,26,0,0,1-3.55-9.46h-.32V164.41l4-4Z" transform="translate(-2.43 -3.4)"/><polygon points="121.44 150.8 121.44 160.79 117.68 157.03 113.7 161.01 113.7 151.02 117.68 147.04 121.44 150.8"/><polygon class="cls-1" points="121.44 143.28 121.44 150.8 117.68 147.04 121.44 143.28"/><polygon class="cls-1" points="121.44 125.18 121.44 143.28 117.68 147.04 113.7 143.06 113.7 125.4 117.68 121.42 121.44 125.18"/><polygon class="cls-1" points="121.44 117.66 121.44 125.18 117.68 121.42 121.44 117.66"/><path d="M123.87,112v9.06l-3.76,3.76-3.67-3.67c-.1-.1-.2-.2-.31-.29v-8.22a16.05,16.05,0,0,1,3.9,2.26l.14-.14A15.86,15.86,0,0,1,123.87,112Z" transform="translate(-2.43 -3.4)"/><path d="M123.87,14.48V112a15.86,15.86,0,0,0-3.7,2.76l-.14.14a16.05,16.05,0,0,0-3.9-2.26V10.91A25.42,25.42,0,0,1,120,7.73a25.42,25.42,0,0,1,3.87,3.18Z" transform="translate(-2.43 -3.4)"/><path class="cls-1" d="M120.11,124.82l-4,4v-7.94c.11.09.21.19.31.29Z" transform="translate(-2.43 -3.4)"/><polygon class="cls-1" points="117.68 147.04 113.7 151.02 113.7 143.06 117.68 147.04"/><path d="M120,7.73a25.42,25.42,0,0,0-3.87,3.18v3.57a18.06,18.06,0,0,0-23.22,2c-8.23,8.23-2.53,16.65-9.17,16.65a4.4,4.4,0,0,1-3.24-1.64,24.37,24.37,0,0,0-26.91,5.14c-9.9,9.9-8.39,29.35,3.79,37.65a5.18,5.18,0,0,0-.17.56,12.19,12.19,0,0,0-6.36,4.13A32,32,0,0,1,39.23,59.58C26.76,62.93,24,77,26.81,82.83c3.07,6.27-1.65,7.92-4,7.13C5.39,102,6.24,127,23.54,138.79a32,32,0,0,1,17.33-5.07c5.1,0,5.1,7.74,0,7.74-19.16,0-33.57,25.21-17.22,41.56,5.51,5.51,10.29,6.5,17.56,7.15,3.17-3.5,8.73.8,6.06,4.75-10.6,15.65,4.87,38.33,25,28.71l1.74-10.09c6.36-16.34,14.64-7.12,10.74-2.87a18.07,18.07,0,0,0,.54,25c11.57,11.57,30.24,2.66,30.79-11.36v3h.32a26,26,0,0,0,3.55,9.46c-10.53,16.88-38.69,16.18-46.25-5.35-23.26,9.23-43-12.29-36.32-33.71-26.14-2.78-38.1-34.48-20-53.83C-3,128.2-2.6,97.7,18.91,83.27A25.81,25.81,0,0,1,38.78,51.72,32.1,32.1,0,0,1,80.56,23.24,25.87,25.87,0,0,1,120,7.73Z" transform="translate(-2.43 -3.4)"/><path d="M116.13,154.42v10L91.75,188.78A16.12,16.12,0,1,1,69,166l28.43-28.43A16.15,16.15,0,0,1,94,129.48c-10.58,3.9-22.15,1.24-30.78-6.81a6.35,6.35,0,0,1-.94-.79L42.85,102.42c-7.2-7.21-1.8-17,5.65-18.9a11.67,11.67,0,0,1,2.35-4.59,31.35,31.35,0,0,0,6,3.76,4,4,0,0,0-.26,6l19.48,19.48a2,2,0,0,1-2.88,2.89L53.68,91.59c-3.84-3.84-9.67,2-5.83,5.83l19.46,19.46.06-.06c8.37,8.37,20,9.78,29.42,3.33l4.63,4.63a9.08,9.08,0,0,0,2.21,9.18l3.67,3.67L74,171a9.05,9.05,0,1,0,12.8,12.8Z" transform="translate(-2.43 -3.4)"/><path class="cls-1" d="M116.13,146.46v8L86.75,183.78A9.05,9.05,0,1,1,74,171l33.35-33.35Z" transform="translate(-2.43 -3.4)"/><polygon class="cls-1" points="113.7 125.4 113.7 143.06 104.87 134.23 113.7 125.4"/><path class="cls-1" d="M116.13,120.86v7.94l-8.83,8.83L103.63,134a9.08,9.08,0,0,1-2.21-9.18l-4.63-4.63c-9.41,6.45-21.05,5-29.42-3.33l-.06.06L47.85,97.42c-3.84-3.84,2-9.67,5.83-5.83l19.49,19.48a2,2,0,0,0,2.88-2.89L56.57,88.7a4,4,0,0,1,.26-6,31.59,31.59,0,0,0,8,2.66l13,13c2.59,2.6,4.92,6,6.91,4s-1.43-4.32-4-6.91l-9.55-9.56c4.71-.37,4.58-7.73-.38-7.73A25.44,25.44,0,0,1,64,77.28c-.12-3.24,4.09-6.12,7.08-3.13L90.6,93.63a2,2,0,0,0,2.89-2.88L74,71.27c-3.85-3.85,2-9.68,5.83-5.84L98.63,84.22,100,85.57a22.54,22.54,0,0,1,2.64,28.74l4.64,4.64A9,9,0,0,1,116.13,120.86Z" transform="translate(-2.43 -3.4)"/><path d="M116.13,112.64v8.22a9,9,0,0,0-8.87-1.91l-4.64-4.64A22.54,22.54,0,0,0,100,85.57l-1.35-1.35L79.84,65.43c-3.84-3.84-9.68,2-5.83,5.84L93.49,90.75a2,2,0,0,1-2.89,2.88L71.12,74.15c-3-3-7.2-.11-7.08,3.13a21.81,21.81,0,0,1-6.66-3,12.4,12.4,0,0,1,8.55-8.16c1.89-7.45,11.7-12.85,18.91-5.65L105,80.57a29.74,29.74,0,0,1,6.93,31A15.8,15.8,0,0,1,116.13,112.64Z" transform="translate(-2.43 -3.4)"/><path d="M80.74,95.44c2.6,2.59,6,4.92,4,6.91s-4.32-1.43-6.91-4l-13-13a32.22,32.22,0,0,0,5.93.55l.38,0Z" transform="translate(-2.43 -3.4)"/><path class="cls-1" d="M70.81,78.15c5,0,5.09,7.36.38,7.73L65.29,80A3.92,3.92,0,0,1,64,77.28,25.44,25.44,0,0,0,70.81,78.15Z" transform="translate(-2.43 -3.4)"/><path d="M71.19,85.88l-.38,0a32.22,32.22,0,0,1-5.93-.55L62.4,82.87a3.91,3.91,0,0,0-5.57-.18,31.35,31.35,0,0,1-6-3.76,12.19,12.19,0,0,1,6.36-4.13,5.18,5.18,0,0,1,.17-.56,21.81,21.81,0,0,0,6.66,3A3.92,3.92,0,0,0,65.29,80Z" transform="translate(-2.43 -3.4)"/><path class="cls-1" d="M62.4,82.87l2.48,2.48a31.59,31.59,0,0,1-8-2.66A3.91,3.91,0,0,1,62.4,82.87Z" transform="translate(-2.43 -3.4)"/></svg>