<svg id="Layer_1" enable-background="new 0 0 512 512" height="512" viewBox="0 0 512 512" width="512" xmlns="http://www.w3.org/2000/svg"><path d="m61 45c0 24.814 20.186 45 45 45h345v-90h-345c-24.814 0-45 20.186-45 45z"/><path d="m211 291.92v128.08h30v-150h-8.027c-5.314 9.192-12.951 16.703-21.973 21.92z"/><path d="m181 270c12.715 0 24.082-8.042 28.301-19.995l3.545-10.005h86.309l3.545 10.005c4.218 11.953 15.585 19.995 28.3 19.995 16.553 0 30-13.462 30-30s-13.447-30-30-30h-150c-16.553 0-30 13.462-30 30s13.447 30 30 30z"/><path d="m279.027 270h-8.027v150h30v-128.08c-9.022-5.217-16.659-12.728-21.973-21.92z"/><path d="m61 467c0 24.814 20.186 45 45 45h345v-392h-345c-16.952 0-32.428-5.861-45-15.377zm120-287h150c33.076 0 60 26.909 60 60s-26.924 60-60 60v120h30v30h-210v-30h30v-120c-33.076 0-60-26.909-60-60s26.924-60 60-60z"/></svg>