<?xml version="1.0" encoding="iso-8859-1"?>
<!-- Generator: Adobe Illustrator 19.0.0, SVG Export Plug-In . SVG Version: 6.00 Build 0)  -->
<svg version="1.1" id="Capa_1" xmlns="http://www.w3.org/2000/svg" xmlns:xlink="http://www.w3.org/1999/xlink" x="0px" y="0px"
	 viewBox="0 0 512 512" style="enable-background:new 0 0 512 512;" xml:space="preserve">
<g>
	<g>
		<path d="M187.307,272.734h-19.792v19.792c0,29.608,24.088,53.696,53.696,53.696h19.792V326.43
			C241.003,296.822,216.915,272.734,187.307,272.734z"/>
	</g>
</g>
<g>
	<g>
		<path d="M324.693,272.734c-29.608,0-53.696,24.088-53.696,53.696v19.792h19.792v0c29.608,0,53.696-24.088,53.696-53.696v-19.792
			H324.693z"/>
	</g>
</g>
<g>
	<g>
		<path d="M463.183,207.228L256,0.044L48.817,207.227L0,256.045l21.209,21.209l27.607-27.607v262.309h192.186v-135.74h-19.792
			c-46.147,0-83.691-37.544-83.691-83.691v-49.786h49.786c28.419,0,53.559,14.251,68.693,35.969
			c15.134-21.718,40.274-35.969,68.693-35.969h49.786v49.786c0,46.147-37.544,83.691-83.691,83.691h-19.792v135.74h192.186V249.647
			l27.607,27.607L512,256.045L463.183,207.228z"/>
	</g>
</g>
<g>
</g>
<g>
</g>
<g>
</g>
<g>
</g>
<g>
</g>
<g>
</g>
<g>
</g>
<g>
</g>
<g>
</g>
<g>
</g>
<g>
</g>
<g>
</g>
<g>
</g>
<g>
</g>
<g>
</g>
</svg>
