<svg id="Layer_1" data-name="Layer 1" xmlns="http://www.w3.org/2000/svg" viewBox="0 0 308.58 357.34"><path d="M318.74,231.42l-14.4-26a48.83,48.83,0,0,1-5.94-25.89c.11-2.62.15-5.26.1-7.92A121.11,121.11,0,0,0,280.93,111a121.24,121.24,0,0,0-227.14,59c0,.43,0,.86,0,1.29,0,.83,0,1.67,0,2.5a122.23,122.23,0,0,0,49.37,98.4,81.58,81.58,0,0,1,33.2,65.34v30.05H238.68V312.43H272.6A29.84,29.84,0,0,0,302.4,281l-3.88-40.26L314,242.25A7.46,7.46,0,0,0,318.74,231.42Zm-144,21.94a83.73,83.73,0,1,1,83.72-83.73A83.73,83.73,0,0,1,174.76,253.36Z" transform="translate(-15.44 -10.32)"/><rect x="153.89" width="10.85" height="27.43"/><rect x="113.61" y="21.4" width="10.85" height="27.43" transform="translate(-19.82 37.91) rotate(-22.5)"/><rect x="66.37" y="52.96" width="10.85" height="27.43" transform="translate(-41.56 59.98) rotate(-45)"/><rect x="34.81" y="100.2" width="10.85" height="27.43" transform="translate(-95.84 97.17) rotate(-67.5)"/><rect x="216.76" y="29.69" width="27.43" height="10.85" transform="translate(94.4 224.3) rotate(-67.5)"/><rect x="264" y="61.25" width="27.43" height="10.85" transform="translate(18.76 205.6) rotate(-45)"/><rect x="295.56" y="108.49" width="27.43" height="10.85" transform="translate(-35.49 116.73) rotate(-22.5)"/><rect y="153.89" width="27.43" height="10.85"/><rect x="26.52" y="219.93" width="27.43" height="10.85" transform="translate(-98.61 22.23) rotate(-22.5)"/><rect x="58.09" y="267.16" width="27.43" height="10.85" transform="translate(-187.17 120.31) rotate(-45)"/><rect x="147.35" y="115.82" width="23.93" height="86.99"/><rect x="162.79" y="126.14" width="23.93" height="86.99" transform="translate(328.95 -15.44) rotate(90)"/></svg>