<svg id="_ÎÓÈ_1" data-name="—ÎÓÈ_1" xmlns="http://www.w3.org/2000/svg" viewBox="0 0 1082.6 783.23"><defs><style>.cls-1{stroke:#fff;stroke-miterlimit:22.93;stroke-width:14.17px;}.cls-1,.cls-2{fill-rule:evenodd;}</style></defs><circle cx="391.67" cy="206.78" r="186.34" transform="translate(-50.75 317.08) rotate(-45)"/><path class="cls-1" d="M33.7,679.64a1.09,1.09,0,0,0,.17.13A566.27,566.27,0,0,0,379.23,796.58c280.35,0,513.28-202.83,560.16-469.75.05-.29.09-.58.15-.87,2.82-14.48,12.71-21.09,27.53-22.24H1086L969.08,173.22,852.16,42.72,735.25,173.22,618.34,303.72H738.88c11.68.62,18.79,4.79,18.46,14.74,0,.15,0,.29,0,.44C741.91,556.26,544.53,744,303.27,744a453,453,0,0,1-268-87.22l-1.79-1.15C25.86,651.12,22.13,669.79,33.7,679.64Z" transform="translate(-19.25 -20.44)"/><path class="cls-2" d="M242.25,391.28h14.9L391.67,497,526.2,391.28h14.9c67.9,0,126.85,40.34,154,98.24l0,.05c2.2,7.59,1.05,14.5-1.75,21.09-.06.14-.16.27-.23.4A449.33,449.33,0,0,1,164.27,715.71,446.38,446.38,0,0,1,81,678.83c-6.93-4-8.51-3.79-8.81-12.6V561.36C72.17,467.82,148.71,391.28,242.25,391.28Z" transform="translate(-19.25 -20.44)"/></svg>