<svg height="512pt" viewBox="0 1 512 511" width="512pt" xmlns="http://www.w3.org/2000/svg"><path d="m512 299.621094v-86.242188l-51.898438-10.378906c-4.863281-18.488281-12.242187-36.199219-22.042968-52.859375l29.453125-44.171875-60.980469-60.980469-44.171875 29.453125c-16.660156-9.800781-34.371094-17.179687-52.859375-22.042968l-10.378906-51.898438h-86.242188l-10.378906 51.898438c-18.488281 4.863281-36.199219 12.242187-52.859375 22.042968l-44.171875-29.453125-60.980469 60.980469 29.453125 44.171875c-9.800781 16.660156-17.179687 34.371094-22.042968 52.859375l-51.898438 10.378906v86.242188l51.898438 10.378906c4.863281 18.488281 12.242187 36.199219 22.042968 52.859375l-29.453125 44.171875 60.980469 60.980469 44.171875-29.453125c16.660156 9.800781 34.371094 17.179687 52.859375 22.042968l10.378906 51.898438h86.242188l10.378906-51.898438c18.488281-4.863281 36.199219-12.242187 52.859375-22.042968l44.171875 29.453125 60.980469-60.980469-29.453125-44.171875c9.800781-16.660156 17.179687-34.371094 22.042968-52.859375zm-256 106.878906c-82.710938 0-150-67.289062-150-150s67.289062-150 150-150 150 67.289062 150 150-67.289062 150-150 150zm0 0"/><path d="m256 136.5c-66.171875 0-120 53.828125-120 120s53.828125 120 120 120 120-53.828125 120-120-53.828125-120-120-120zm60 210h-120v-30c0-33.078125 26.921875-60 60-60-24.808594 0-45-20.191406-45-45s20.191406-45 45-45 45 20.191406 45 45-20.191406 45-45 45c33.078125 0 60 26.921875 60 60zm0 0"/><path d="m256 196.5c-8.269531 0-15 6.730469-15 15s6.730469 15 15 15 15-6.730469 15-15-6.730469-15-15-15zm0 0"/><path d="m256 286.5c-16.539062 0-30 13.460938-30 30h60c0-16.539062-13.460938-30-30-30zm0 0"/></svg>