<svg id="Capa_1" enable-background="new 0 0 512 512" height="512" viewBox="0 0 512 512" width="512" xmlns="http://www.w3.org/2000/svg"><g><path d="m290.468 295.992c0-43.541-35.297-78.838-78.838-78.838-27.865 0-52.353 14.457-66.375 36.279-14.021-21.822-38.509-36.279-66.375-36.279-43.541 0-78.838 35.297-78.838 78.838 0 0-6.591 86.092 145.213 184.631 151.804-98.539 145.213-184.631 145.213-184.631z"/><path d="m511.941 141.691c0-60.925-49.39-110.315-110.315-110.315-38.991 0-73.256 20.229-92.875 50.764-19.619-30.535-53.884-50.764-92.875-50.764-60.925 0-110.315 49.39-110.315 110.315 0 0-1.497 19.602 10.652 52.038 10.441 3.799 20.237 9.161 29.042 15.947 18.733-14.439 41.912-22.522 66.375-22.522 29.072 0 56.403 11.321 76.96 31.878 20.362 20.362 31.663 47.371 31.875 76.135.315 7.589-.303 33.397-18.974 69.861-3.712 7.248-7.933 14.491-12.631 21.708 6.406 4.414 13.031 8.849 19.892 13.302 212.411-137.882 203.189-258.347 203.189-258.347z"/></g></svg>