<?xml version="1.0" encoding="iso-8859-1"?>
<!-- Generator: Adobe Illustrator 16.0.0, SVG Export Plug-In . SVG Version: 6.00 Build 0)  -->
<!DOCTYPE svg PUBLIC "-//W3C//DTD SVG 1.1//EN" "http://www.w3.org/Graphics/SVG/1.1/DTD/svg11.dtd">
<svg version="1.1" id="Capa_1" xmlns="http://www.w3.org/2000/svg" xmlns:xlink="http://www.w3.org/1999/xlink" x="0px" y="0px"
	 width="453.34px" height="453.34px" viewBox="0 0 453.34 453.34" style="enable-background:new 0 0 453.34 453.34;"
	 xml:space="preserve">
<g>
	<g>
		<path d="M387.426,355.048c17.737-8.034,31.517-17.423,39.89-27.745c-12.787-22.279-30.326-51.822-48.612-79.147
			c-5.512-2.195-11.327-4.297-17.469-6.236c-2.464,12.086-6.061,24.557-10.638,37.227
			C369.245,305.806,381.692,331.834,387.426,355.048z"/>
		<path d="M232.751,198.155c12.693,0,23.226,7.771,25.607,18.076c8.7,0.409,17.166,1.051,25.469,1.868
			c-19.642-17.691-40.427-32.859-60.967-44.84c-14.97,12.553-29.694,27.786-43.409,45.062c9.032-0.917,18.228-1.646,27.687-2.09
			C209.514,205.926,220.07,198.155,232.751,198.155z"/>
		<path d="M334.062,317.342c6.866,4.053,11.385,10.849,11.385,18.556c0,12.413-11.688,22.49-26.121,22.49
			c-3.06,0-5.943-0.549-8.676-1.378c-5.162,7.66-10.498,15.028-16.033,22.059c32.054-3.982,60.662-10.965,83.689-20.098
			c-4.881-20.832-15.787-44.501-31.878-68.824C342.808,299.162,338.697,308.258,334.062,317.342z"/>
		<path d="M273.188,389.823c-13.078,1.004-26.565,1.564-40.438,1.564c-2.744,0-5.406-0.117-8.121-0.175
			c9.978,6.69,19.974,12.646,29.853,17.831C260.823,403.077,267.07,396.666,273.188,389.823z"/>
		<path d="M110.72,376.09c-0.199,2.58-0.502,5.231-0.584,7.73c-1.086,31.855,7.713,54.883,24.79,66.033h59.641
			c17.125-7.029,35.16-18.811,52.792-34.307c-13.09-6.971-26.309-15.262-39.41-24.768
			C171.884,389.133,138.797,383.961,110.72,376.09z"/>
		<path d="M87.359,247.922c-6.533,2.592-12.471,5.371-18.059,8.279c-13.68,20.902-26.688,42.539-37.355,60.85
			c8.419,18.847,33.817,35.451,70.045,47.245c2.738-19.605,8.53-40.496,17.136-61.783
			C105.482,283.865,94.856,265.426,87.359,247.922z"/>
		<path d="M165.549,371.221c-17.399,0-31.511-12.133-31.511-27.103c0-5.839,2.201-11.222,5.838-15.647
			c-4.893-5.594-9.476-11.187-13.837-16.791c-7.258,19.15-12.162,37.88-14.433,55.466c24.428,7.041,52.95,12.039,83.988,14.269
			c-5.354-4.227-10.667-8.629-15.904-13.206C175.422,370.077,170.652,371.221,165.549,371.221z"/>
		<path d="M214.237,168.39c-28.568-15.449-56.202-24.347-78.967-24.44c0.082,4.852,0.181,9.336,0.298,13.09
			c-0.175,6.831-17.014,29.8-30.559,48.262c-4.846,6.603-10.001,13.68-15.227,20.995c1.022,3.293,2.225,6.68,3.492,10.066
			c21.083-7.362,45.739-13.043,72.988-16.593C181.237,199.959,197.533,182.595,214.237,168.39z"/>
		<path d="M159.039,229.601c-23.185,3.503-44.273,8.618-62.472,14.982c6.527,15.227,15.577,31.294,26.939,47.572
			c5.19-11.688,11.146-23.424,17.913-35.066C146.965,247.549,152.874,238.371,159.039,229.601z"/>
		<path d="M263.403,413.54c24.347,11.665,47.607,18.25,67.202,18.25c13.358,0,24.394-3.035,32.766-9.061
			c15.379-11.023,20.388-30.734,16.558-55.034c-25.643,9.901-57.369,17.13-92.961,20.831
			C279.343,397.565,271.449,405.868,263.403,413.54z"/>
		<path d="M343.613,269.595c3.434-10.346,6.154-20.528,8.104-30.419c-12.985-3.643-27.057-6.737-42.073-9.12
			c0.515,0.514,1.04,1.004,1.542,1.53C323.365,244.151,334.085,256.891,343.613,269.595z"/>
		<path d="M100.963,373.113c-36.036-11.443-62.513-27.546-74.634-46.335c-5.874,10.218-10.871,19.092-14.34,25.258l-3.047,5.441
			c-11.788,20.797-11.934,49.195-0.362,69.047c8.77,15.052,22.829,23.342,39.579,23.342h72.211
			c-14.118-14.152-21.176-36.934-20.184-66.279C100.298,380.155,100.642,376.627,100.963,373.113z"/>
		<path d="M353.177,230.389c0.817-5.441,1.425-10.772,1.764-15.986c-2.207-3.024-4.508-6.206-6.621-9.09
			c-13.545-18.45-30.384-41.419-30.559-48.209c0.187-5.336,0.291-12.057,0.385-19.472c-4.426-1.226-9.05-2.067-14.047-2.067
			c-22,0-47.936,11.729-73.625,31.604c23.284,13.808,46.767,31.651,68.778,52.635C318.624,222.303,336.771,225.87,353.177,230.389z"
			/>
		<path d="M293.203,335.898c0-12.425,11.7-22.479,26.134-22.479c1.915,0,3.771,0.198,5.582,0.537
			c5.721-11.245,10.672-22.502,14.853-33.642c-10.334-14.434-22.432-29.006-36.222-43.24c-3.037-3.141-6.143-6.201-9.261-9.219
			c-11.548-1.425-23.575-2.405-35.907-3.013c-2.288,10.387-12.856,18.257-25.631,18.257c-12.74,0-23.331-7.871-25.643-18.257
			c-11.946,0.584-23.623,1.506-34.839,2.867c-7.766,10.486-15.174,21.568-21.947,33.209c-7.829,13.453-14.479,27.033-20.131,40.474
			c5.225,6.972,10.783,13.942,16.809,20.89c5.214-3.27,11.578-5.289,18.538-5.289c17.417,0,31.505,12.156,31.505,27.126
			c0,7.427-3.48,14.13-9.084,19.034c7.911,6.842,15.985,13.265,24.125,19.243c6.796,0.269,13.691,0.421,20.668,0.421
			c16.757,0,32.953-0.888,48.542-2.383c7.239-8.711,14.188-18.029,20.773-27.791C296.683,348.533,293.203,342.577,293.203,335.898z"
			/>
		<path d="M444.41,357.454l-3.048-5.418c-2.405-4.273-5.616-9.949-9.225-16.301c-9.867,10.544-24.452,20.037-42.785,28.083
			c5.08,28.597-0.898,52.091-19.594,65.521c-10.218,7.333-23.401,11.047-39.153,11.047c-22.07,0-47.689-7.217-74.29-20.202
			c-13.592,12.133-27.5,22.116-41.22,29.671h190.08c16.757,0,30.816-8.278,39.586-23.342
			C456.333,406.672,456.181,378.274,444.41,357.454z"/>
		<path d="M335.521,3.474H112.062v31.002h23.424c-0.204,17.615-0.683,66.7-0.321,100.902c25.479,0.07,55.682,9.727,86.626,26.782
			c28.229-22.216,57.165-35.177,82.33-35.177c4.939,0,9.609,0.619,14.141,1.623c0.233-33.636-0.211-77.635-0.386-94.118h17.656
			V3.474H335.521z"/>
		<path d="M273.188,389.823c2.744-3.06,5.441-6.166,8.104-9.389c-15.589,1.495-31.773,2.383-48.542,2.383
			c-6.977,0-13.86-0.152-20.668-0.421c4.174,3.06,8.349,6.002,12.547,8.828c2.715,0.046,5.365,0.163,8.121,0.163
			C246.624,391.387,260.11,390.827,273.188,389.823z"/>
	</g>
</g>
<g>
</g>
<g>
</g>
<g>
</g>
<g>
</g>
<g>
</g>
<g>
</g>
<g>
</g>
<g>
</g>
<g>
</g>
<g>
</g>
<g>
</g>
<g>
</g>
<g>
</g>
<g>
</g>
<g>
</g>
</svg>
