<?xml version="1.0" encoding="iso-8859-1"?>
<!-- Generator: Adobe Illustrator 19.0.0, SVG Export Plug-In . SVG Version: 6.00 Build 0)  -->
<svg version="1.1" id="Capa_1" xmlns="http://www.w3.org/2000/svg" xmlns:xlink="http://www.w3.org/1999/xlink" x="0px" y="0px"
	 viewBox="0 0 512.001 512.001" style="enable-background:new 0 0 512.001 512.001;" xml:space="preserve">
<g>
	<g>
		<path d="M285.997,121.002c-8.276,0-15,6.724-15,15s6.724,15,15,15c8.276,0,15-6.724,15-15S294.273,121.002,285.997,121.002z"/>
	</g>
</g>
<g>
	<g>
		<path d="M405.996,121.002H389.48c-2.567-17.701-9.417-33.884-19.684-47.589l11.664-11.664c5.859-5.859,5.859-15.352,0-21.211
			s-15.352-5.859-21.211,0l-11.664,11.664c-13.705-10.266-29.888-17.116-47.589-19.683V15.003c0-8.291-6.709-15-15-15
			s-15,6.709-15,15v17.516c-17.701,2.567-33.884,9.417-47.589,19.684l-11.664-11.664c-5.859-5.859-15.352-5.859-21.211,0
			s-5.859,15.352,0,21.211l11.664,11.664c-10.267,13.705-17.117,29.888-19.684,47.589h-16.516c-8.291,0-15,6.709-15,15
			s6.709,15,15,15h16.516c2.567,17.701,9.417,33.884,19.684,47.589l-11.664,11.664c-5.859,5.859-5.859,15.352,0,21.211
			c5.859,5.859,15.352,5.859,21.211,0l11.664-11.664c13.705,10.267,29.888,17.117,47.589,19.684V257c0,8.291,6.709,15,15,15
			s15-6.709,15-15v-17.516c17.701-2.567,33.884-9.417,47.589-19.684l11.664,11.664c5.859,5.859,15.352,5.859,21.211,0
			s5.859-15.352,0-21.211l-11.664-11.663c10.267-13.705,17.117-29.888,19.684-47.589h16.516v-0.001c8.291,0,15-6.709,15-15
			S414.287,121.002,405.996,121.002z M285.997,181.001c-24.814,0-45-20.186-45-45c0-24.814,20.186-45,45-45
			c24.814,0,45,20.186,45,45C330.997,160.815,310.811,181.001,285.997,181.001z"/>
	</g>
</g>
<g>
	<g>
		<circle cx="180.998" cy="331.998" r="30"/>
	</g>
</g>
<g>
	<g>
		<circle cx="330.997" cy="481.996" r="30"/>
	</g>
</g>
<g>
	<g>
		<path d="M505.419,343.265c-10.35-12.924-29.305-14.972-42.159-4.688l-110.556,87.637c19.688,7.689,34.177,25.426,37.397,46.923
			l110.63-87.714C513.664,375.094,515.791,356.216,505.419,343.265z"/>
	</g>
</g>
<g>
	<g>
		<path d="M292.975,435.97l-87.276-49.437c-7.553,3.437-15.873,5.466-24.701,5.466c-33.091,0-59.999-26.909-59.999-59.999
			c0-10.977,3.177-21.14,8.344-30h-24.344c-24.814,0-45,20.186-45,45v119.999c0,24.814,20.186,45,45,45h174.342
			c-5.167-8.86-8.344-19.023-8.344-30C270.997,463.409,279.667,446.981,292.975,435.97z"/>
	</g>
</g>
<g>
	<g>
		<path d="M300.997,302h-68.343c5.167,8.86,8.344,19.023,8.344,30s-3.177,21.14-8.344,30h68.343c16.569,0,30-13.433,30-30
			C330.997,315.431,317.566,302,300.997,302z"/>
	</g>
</g>
<g>
	<g>
		<path d="M15,332c-8.291,0-15,5.709-15,14v45l30,1V332H15z"/>
	</g>
</g>
<g>
	<g>
		<path d="M0,420.999v45c0,8.291,6.709,16,15,16h15v-59.999L0,420.999z"/>
	</g>
</g>
<g>
</g>
<g>
</g>
<g>
</g>
<g>
</g>
<g>
</g>
<g>
</g>
<g>
</g>
<g>
</g>
<g>
</g>
<g>
</g>
<g>
</g>
<g>
</g>
<g>
</g>
<g>
</g>
<g>
</g>
</svg>
