<svg height="512" viewBox="0 0 56 56" width="512" xmlns="http://www.w3.org/2000/svg"><g id="Page-1" fill="none" fill-rule="evenodd"><g id="002---Suitcase" fill="rgb(0,0,0)" fill-rule="nonzero"><path id="Shape" d="m54 14h-3v24c0 .5522847-.4477153 1-1 1s-1-.4477153-1-1v-24h-4v37h4v-6c0-.5522847.4477153-1 1-1s1 .4477153 1 1v6h3c1.1032019-.0032948 1.9967052-.8967981 2-2v-33c-.0032948-1.1032019-.8967981-1.9967052-2-2zm-11.78 39 .44 2.2c.0950537.4656663.5047314.800097.98.8h5.72c.4752686.000097.8849463-.3343337.98-.8l.44-2.2zm-37 0 .44 2.2c.09505372.4656663.50473138.800097.98.8h5.72c.4752686.000097.8849463-.3343337.98-.8l.44-2.2zm1.78-39v6c0 .5522847-.44771525 1-1 1s-1-.4477153-1-1v-6h-3c-1.10320187.0032948-1.9967052.8967981-2 2v33c.0032948 1.1032019.89679813 1.9967052 2 2h3v-24c0-.5522847.44771525-1 1-1s1 .4477153 1 1v24h4v-37zm26-14h-10c-3.8659932 0-7 3.13400675-7 7 0 .55228475.4477153 1 1 1h1c.5522847 0 1-.44771525 1-1 0-2.209139 1.790861-4 4-4h10c1.0612728-.00132908 2.0794609.41967146 2.8298947 1.17010528.7504338.75043381 1.1714344 1.76862187 1.1701053 2.82989472 0 .55228475.4477153 1 1 1h1c.5522847 0 1-.44771525 1-1 0-1.85651543-.7374979-3.63699282-2.0502525-4.94974747-1.3127547-1.31275465-3.0932321-2.05025253-4.9497475-2.05025253zm8.57 10.63c-.1502657-.3773501-.5138481-.626325-.92-.63h-4.29c-.4098038-.00039671-.7783727.249279-.93.63l-.55 1.37h7.24zm-21 0c-.1502657-.3773501-.5138481-.626325-.92-.63h-4.29c-.4098038-.00039671-.7783727.249279-.93.63l-.55 1.37h7.24zm17.91 11.28c-.147405-.2211435-.3784614-.3727743-.64-.42l-10.79-2.12c-.2599765-.0570411-.5319605-.0026443-.75.15-.2211435.147405-.3727743.3784614-.42.64l-.92 4.66c-.0524163.2601229.0016762.5304012.1501655.7503156.1484892.2199145.37897.3710929.6398345.4196844l10.79 2.12c.2599989.0530663.5304111-.0010162.75-.15.2267337-.1436006.382749-.3758094.43-.64l.91-4.66c.052035-.26-.0019677-.5300135-.15-.75zm0 0c-.147405-.2211435-.3784614-.3727743-.64-.42l-10.79-2.12c-.2599765-.0570411-.5319605-.0026443-.75.15-.2211435.147405-.3727743.3784614-.42.64l-.92 4.66c-.0524163.2601229.0016762.5304012.1501655.7503156.1484892.2199145.37897.3710929.6398345.4196844l10.79 2.12c.2599989.0530663.5304111-.0010162.75-.15.2267337-.1436006.382749-.3758094.43-.64l.91-4.66c.052035-.26-.0019677-.5300135-.15-.75zm-17.3 8.17c-.0458975-.0510752-.1113323-.0802471-.18-.0802471s-.1341025.0291719-.18.0802471l-3.8 5.75c.01.11.05.17.17.17h7.62c.0723117.0070934.1422877-.0278946.18-.09zm16.66-8.59-10.79-2.12c-.2599765-.0570411-.5319605-.0026443-.75.15-.2211435.147405-.3727743.3784614-.42.64l-.92 4.66c-.0524163.2601229.0016762.5304012.1501655.7503156.1484892.2199145.37897.3710929.6398345.4196844l10.79 2.12c.2599989.0530663.5304111-.0010162.75-.15.2267337-.1436006.382749-.3758094.43-.64l.91-4.66c.052035-.26-.0019677-.5300135-.15-.75-.147405-.2211435-.3784614-.3727743-.64-.42zm-4.34 15.51c-2.4852814 0-4.5 2.0147186-4.5 4.5s2.0147186 4.5 4.5 4.5 4.5-2.0147186 4.5-4.5c-.0038545-2.483683-2.016317-4.4961455-4.5-4.5zm-12.5-7c-.0691641-.0027137-.1356672.0268432-.18.08l-3.8 5.75c.01.11.05.17.17.17h7.62c.0723117.0070934.1422877-.0278946.18-.09l-3.81-5.83c-.0443328-.0531568-.1108359-.0827137-.18-.08zm-8-16v37h30v-37zm11.81 24h-7.62c-.8067798.0044684-1.5512852-.4330244-1.94-1.14-.1642326-.300519-.2502055-.6375325-.25-.98.0021166-.4092485.1237681-.8089605.35-1.15l3.81-5.75c.4118493-.6127495 1.1017034-.9802749 1.84-.9802749s1.4281507.3675254 1.84.9802749l.05.07.13.19.12.18 3.51 5.31c.4308294.6348356.4694565 1.4575922.1 2.13-.0902102.1747332-.2084434.3335035-.35.47-.4169931.4300311-.9909955.6719063-1.59.67zm8.69 10c-3.5868841-.0071523-6.4928477-2.9131159-6.5-6.5.0098887-3.5857468 2.9142532-6.4901113 6.5-6.5 3.5898509 0 6.5 2.9101491 6.5 6.5s-2.9101491 6.5-6.5 6.5zm7.1-24.95-.92 4.66c-.2768458 1.4049492-1.5080352 2.4183772-2.94 2.42-.194874-.00016-.38922-.0202647-.58-.06l-10.8-2.12c-.0979938-.017445-.1948385-.0408213-.29-.07-.09-.03-.18-.06-.27-.1-1.3248917-.5414457-2.0797658-1.9463503-1.8-3.35l.91-4.66c.3274864-1.6244656 1.9024679-2.6818894 3.53-2.37l10.79 2.13c1.408642.2775708 2.4231582 1.5142745 2.42 2.95.0032281.1912228-.0135295.3822596-.05.57zm-19.42 7.03c-.0458975-.0510752-.1113323-.0802471-.18-.0802471s-.1341025.0291719-.18.0802471l-3.8 5.75c.01.11.05.17.17.17h7.62c.0723117.0070934.1422877-.0278946.18-.09zm17.3-8.17c-.147405-.2211435-.3784614-.3727743-.64-.42l-10.79-2.12c-.2599765-.0570411-.5319605-.0026443-.75.15-.2211435.147405-.3727743.3784614-.42.64l-.92 4.66c-.0524163.2601229.0016762.5304012.1501655.7503156.1484892.2199145.37897.3710929.6398345.4196844l10.79 2.12c.2599989.0530663.5304111-.0010162.75-.15.2267337-.1436006.382749-.3758094.43-.64l.91-4.66c.052035-.26-.0019677-.5300135-.15-.75zm0 0c-.147405-.2211435-.3784614-.3727743-.64-.42l-10.79-2.12c-.2599765-.0570411-.5319605-.0026443-.75.15-.2211435.147405-.3727743.3784614-.42.64l-.92 4.66c-.0524163.2601229.0016762.5304012.1501655.7503156.1484892.2199145.37897.3710929.6398345.4196844l10.79 2.12c.2599989.0530663.5304111-.0010162.75-.15.2267337-.1436006.382749-.3758094.43-.64l.91-4.66c.052035-.26-.0019677-.5300135-.15-.75z"/></g></g></svg>